<svg width="128" height="128" viewBox="0 0 128 128" fill="none" xmlns="http://www.w3.org/2000/svg">
  <defs>
    <linearGradient id="bg" x1="18" y1="12" x2="112" y2="118" gradientUnits="userSpaceOnUse">
      <stop stop-color="#111827"/>
      <stop offset="1" stop-color="#3B1111"/>
    </linearGradient>
    <linearGradient id="flame" x1="54" y1="22" x2="82" y2="86" gradientUnits="userSpaceOnUse">
      <stop stop-color="#FFE7A3"/>
      <stop offset="0.48" stop-color="#F97316"/>
      <stop offset="1" stop-color="#DC2626"/>
    </linearGradient>
  </defs>
  <rect x="10" y="10" width="108" height="108" rx="30" fill="url(#bg)"/>
  <rect x="11.5" y="11.5" width="105" height="105" rx="28.5" stroke="#FFFFFF" stroke-opacity="0.12" stroke-width="3"/>
  <circle cx="91" cy="37" r="18" fill="#FFFFFF" fill-opacity="0.08"/>
  <path d="M73 95c-25 0-42-17-42-39 0-13 7-25 17-34 7-6 12-13 13-25 0-5 7-7 10-3 10 12 13 24 9 37 6-5 10-12 13-21 1-5 8-6 10-1 10 16 10 35 1 51 1 22-15 35-31 35Z" fill="url(#flame)" opacity="0.96"/>
  <path d="M72 82c-12 0-21-8-21-20 0-8 4-15 11-21 4-4 7-9 8-16 0-3 4-4 6-2 6 7 8 14 5 22 4-3 7-7 9-13 0-3 5-4 7-1 6 10 6 21 1 31 0 12-10 20-26 20Z" fill="#FFF7ED" opacity="0.92"/>
  <rect x="26" y="72" width="56" height="34" rx="13" fill="#0B1020" fill-opacity="0.72" stroke="#FFFFFF" stroke-opacity="0.12" stroke-width="2"/>
  <text x="54" y="97" text-anchor="middle" font-family="Inter, SF Pro Display, Arial, sans-serif" font-size="28" font-weight="800" fill="#FFF7ED">!</text>
  <path d="M28 43h25M28 56h17" stroke="#FCA5A5" stroke-width="7" stroke-linecap="round" opacity="0.95"/>
</svg>
